<?xml version="1.0" encoding="UTF-8" standalone="no"?>
<svg
   xmlns:dc="http://purl.org/dc/elements/1.1/"
   xmlns:cc="http://creativecommons.org/ns#"
   xmlns:rdf="http://www.w3.org/1999/02/22-rdf-syntax-ns#"
   xmlns:svg="http://www.w3.org/2000/svg"
   xmlns="http://www.w3.org/2000/svg"
   xmlns:sodipodi="http://sodipodi.sourceforge.net/DTD/sodipodi-0.dtd"
   xmlns:inkscape="http://www.inkscape.org/namespaces/inkscape"
   sodipodi:docname="icon.svg"
   inkscape:version="1.0 (4035a4fb49, 2020-05-01)"
   id="svg8"
   version="1.1"
   viewBox="0 0 8.4666665 8.466667"
   height="32"
   width="32">
  <defs
     id="defs2">
    <clipPath
       clipPathUnits="userSpaceOnUse"
       id="clipPath5238-1-8-9-8-4">
      <rect
         transform="rotate(-90)"
         style="color:#000000;display:inline;overflow:visible;visibility:visible;fill:#ffffff;fill-opacity:1;fill-rule:evenodd;stroke:none;enable-background:accumulate"
         id="rect5240-2-3-9-5-1"
         width="315.35437"
         height="744.09448"
         x="-1016.9291"
         y="1461.6753" />
    </clipPath>
    <clipPath
       clipPathUnits="userSpaceOnUse"
       id="clipPath5242-3-9-7-7">
      <rect
         transform="rotate(-90)"
         style="color:#000000;display:inline;overflow:visible;visibility:visible;fill:#ffffff;fill-opacity:1;fill-rule:evenodd;stroke:none;enable-background:accumulate"
         id="rect5244-3-2-6-6"
         width="315.35437"
         height="744.09448"
         x="-1016.9291"
         y="1461.6753" />
    </clipPath>
  </defs>
  <sodipodi:namedview
     inkscape:document-rotation="0"
     inkscape:window-maximized="1"
     inkscape:window-y="1072"
     inkscape:window-x="1912"
     inkscape:window-height="1009"
     inkscape:window-width="2560"
     inkscape:pagecheckerboard="true"
     units="px"
     showgrid="true"
     inkscape:current-layer="layer1"
     inkscape:document-units="px"
     inkscape:cy="9.3052652"
     inkscape:cx="17.925851"
     inkscape:zoom="12.8"
     inkscape:pageshadow="2"
     inkscape:pageopacity="0.0"
     borderopacity="1.0"
     bordercolor="#666666"
     pagecolor="#ffffff"
     id="base">
    <inkscape:grid
       id="grid898"
       type="xygrid" />
  </sodipodi:namedview>
  <metadata
     id="metadata5">
    <rdf:RDF>
      <cc:Work
         rdf:about="">
        <dc:format>image/svg+xml</dc:format>
        <dc:type
           rdf:resource="http://purl.org/dc/dcmitype/StillImage" />
        <dc:title></dc:title>
      </cc:Work>
    </rdf:RDF>
  </metadata>
  <g
     transform="translate(0,-270.54165)"
     id="layer1"
     inkscape:groupmode="layer"
     inkscape:label="Layer 1">
    <rect
       y="270.54166"
       x="0"
       height="8.4666672"
       width="8.4666672"
       id="rect900"
       style="fill:#800080;stroke-width:0.79375;stroke-linecap:square" />
    <path
       inkscape:connector-curvature="0"
       id="path42404"
       d="M 4.9911576,272.83929 C 4.9562346,272.83833 4.9214396,272.83833 4.8868796,272.83953 4.2877506,272.86379 3.7466716,273.27267 3.5835606,273.88143 3.5680136,273.93948 3.5576376,273.99775 3.5496636,274.05581 L 3.7754506,274.07155 C 3.7818146,274.02763 3.7905636,273.98353 3.8023016,273.93952 3.8024686,273.93856 3.8032656,273.93709 3.8032656,273.9361 L 3.8216566,273.97029 C 3.8320216,273.98935 3.8572136,274.01553 3.8885476,274.04419 3.9223936,273.88961 3.9776436,273.74011 4.0518256,273.60196 4.0282526,273.58591 4.0075116,273.56953 3.9866916,273.55289 4.0261146,273.49832 4.0700356,273.44777 4.1175486,273.4013 4.1297206,273.41166 4.1410726,273.42188 4.1566746,273.43314 4.2052936,273.3646 4.2605916,273.30166 4.3193666,273.24269 4.4192576,273.18053 4.5278306,273.13322 4.6424226,273.10307 4.7196736,273.13697 4.7995156,273.17025 4.8883676,273.20151 4.9224566,273.14938 4.9575026,273.10527 4.9932306,273.06539 5.0778616,273.0693 5.1632256,273.08135 5.2485206,273.10423 V 273.10471 C 5.3339396,273.12761 5.4139406,273.15995 5.4892006,273.19906 5.5001676,273.25135 5.5082666,273.30723 5.5116886,273.36934 5.6042746,273.3867 5.6901326,273.39752 5.7739876,273.40671 5.8581636,273.49012 5.9285806,273.58539 5.9840066,273.68917 6.0054346,273.76971 6.0218146,273.85194 6.0295906,273.9357 6.0487526,273.93377 6.0637806,273.93047 6.0795396,273.92753 6.0972076,273.99157 6.1096206,274.05721 6.1166126,274.12411 6.0904466,274.12801 6.0642846,274.13223 6.0359946,274.13433 6.0311016,274.29106 6.0039566,274.44802 5.9559626,274.59876 5.9975356,274.58967 6.0322926,274.57938 6.0508926,274.56809 L 6.0839076,274.54794 C 6.0837356,274.5489 6.0836686,274.54987 6.0834246,274.55037 6.0602856,274.63661 6.0278236,274.71752 5.9882056,274.7934 5.9512786,274.80128 5.9139936,274.8088 5.8725316,274.81237 5.8183376,274.92655 5.7509886,275.03362 5.6721586,275.13133 5.6952016,275.12989 5.7127556,275.12644 5.7317466,275.12345 5.6391876,275.20648 5.5342786,275.27424 5.4209576,275.32441 5.2936146,275.31552 5.1558436,275.29766 5.0099846,275.26979 4.9719336,275.32976 4.9331226,275.37968 4.8931466,275.42402 4.8085136,275.42011 4.7228696,275.40806 4.6375636,275.38518 4.5523516,275.36233 4.4722806,275.33009 4.3971726,275.29113 4.3845416,275.23275 4.3758886,275.16993 4.3729126,275.09893 4.2770826,275.06553 4.1889636,275.02964 4.1047686,274.99261 L 3.8778146,275.16378 C 4.0559136,275.37088 4.2957916,275.52841 4.5788386,275.60425 5.3280726,275.80502 6.1011366,275.35862 6.3018996,274.60938 6.5026546,273.86014 6.0565596,273.0865 5.3073196,272.88574 5.2019556,272.85752 5.0960046,272.84226 4.9912756,272.83874 Z M 5.2455676,273.11532 V 273.11556 C 5.2431336,273.11459 5.2214036,273.11508 5.1757546,273.15498 5.1481206,273.17929 5.1152346,273.21883 5.0814126,273.2651 5.1196116,273.27635 5.1572006,273.28814 5.1964936,273.2987 5.2358686,273.30926 5.2742386,273.31767 5.3130446,273.32702 5.3071876,273.27006 5.2988956,273.21965 5.2870226,273.18477 5.2675476,273.12729 5.2478936,273.11589 5.2455456,273.11525 Z M 4.5617806,273.28678 C 4.4724826,273.35684 4.3937466,273.44269 4.3254726,273.53886 4.3343666,273.54375 4.3416216,273.54845 4.3509056,273.5532 4.4382896,273.59815 4.5394026,273.64223 4.6485476,273.68405 4.6925666,273.57044 4.7390256,273.468 4.7872926,273.37531 4.7087016,273.34699 4.6323906,273.31768 4.5617996,273.28681 Z M 4.9750906,273.43808 V 273.43833 C 4.9265706,273.52841 4.8782176,273.63125 4.8322546,273.74882 4.9050106,273.77288 4.9801766,273.79578 5.0577556,273.81659 5.1352226,273.83736 5.2114956,273.85474 5.2864616,273.87062 5.3054786,273.74583 5.3152216,273.63231 5.3183016,273.53004 5.2612226,273.51727 5.2038496,273.50358 5.1456716,273.48798 5.0873996,273.47234 5.0310436,273.45506 4.9750906,273.43804 Z M 5.5125396,273.56952 C 5.5081286,273.67395 5.4971856,273.78587 5.4786456,273.90631 5.5943246,273.92475 5.7041196,273.93717 5.8022826,273.94196 5.8125986,273.94221 5.8214686,273.94206 5.8314836,273.94221 5.8205166,273.82484 5.7949476,273.71104 5.7526156,273.60572 5.6758156,273.59716 5.5950046,273.58438 5.5125156,273.56952 Z M 4.2235326,273.70594 C 4.1604516,273.82705 4.1134146,273.95838 4.0836226,274.09354 L 4.5048176,274.12332 C 4.5286796,274.03486 4.5543446,273.94947 4.5816366,273.86745 4.4655486,273.82323 4.3573846,273.7761 4.2617986,273.72695 4.2481566,273.71982 4.2367576,273.71297 4.2235516,273.70593 Z M 4.7653656,273.9323 C 4.7435046,273.99786 4.7234476,274.06728 4.7040256,274.13735 L 5.1921166,274.17184 4.7942826,274.47211 C 4.8216226,274.48018 4.8473796,274.48941 4.8754886,274.49695 4.9589676,274.5193 5.0408516,274.5375 5.1214266,274.55392 5.1472026,274.47674 5.1715486,274.39624 5.1938686,274.31294 5.2166706,274.22786 5.2359306,274.14418 5.2525746,274.06291 5.1720576,274.04589 5.0904026,274.02705 5.0072206,274.00478 4.9239146,273.98244 4.8436216,273.95782 4.7653656,273.93234 Z M 5.4450676,274.0988 C 5.4274486,274.18505 5.4070156,274.27353 5.3828546,274.36373 5.3619576,274.44155 5.3388346,274.51598 5.3153776,274.58893 5.4238616,274.60561 5.5276456,274.6174 5.6203246,274.62195 5.6616066,274.62387 5.6993306,274.62339 5.7365766,274.62243 5.7953286,274.46723 5.8288366,274.3018 5.8361786,274.13813 5.8212586,274.13765 5.8079566,274.13794 5.7926486,274.13717 5.6852976,274.13199 5.5679416,274.11839 5.4450576,274.09863 Z M 2.3915256,274.22556 2.5539286,274.77354 2.1166666,274.90322 2.2148056,275.23475 2.6523616,275.10506 2.8147696,275.65303 4.5068616,274.37512 Z M 4.6003316,274.61872 4.5988846,274.61969 C 4.5799156,274.74429 4.5704676,274.85779 4.5673386,274.95998 4.6230966,274.97745 4.6795636,274.99402 4.7379246,275.00963 4.7962786,275.02528 4.8537506,275.03922 4.9108436,275.05199 4.9593636,274.96168 5.0077046,274.85841 5.0536766,274.74061 4.9785306,274.72456 4.9023376,274.70643 4.8249656,274.6857 4.7478816,274.66502 4.6731016,274.64237 4.6003436,274.61881 Z M 5.2484916,274.77762 C 5.2049606,274.89232 5.1591306,274.99753 5.1112036,275.09192 5.2170506,275.11021 5.3162766,275.12205 5.4091396,275.12928 5.5020596,275.03982 5.5818726,274.93448 5.6460286,274.8182 V 274.81796 C 5.6338076,274.81772 5.6229376,274.81774 5.6103726,274.81748 5.4988006,274.81206 5.3767106,274.7987 5.2484716,274.77776 Z M 4.3833076,274.78261 4.2851646,274.85681 C 4.3156356,274.86907 4.3414266,274.88199 4.3736686,274.89388 4.3755976,274.85813 4.3796946,274.8202 4.3833106,274.78259 Z M 4.5725836,275.16409 C 4.5787536,275.22117 4.5873586,275.272 4.5991426,275.30692 4.6186186,275.36439 4.6373896,275.37551 4.6397376,275.37615 4.6421716,275.37711 4.6648776,275.37663 4.7104246,275.33672 4.7381556,275.31241 4.7705746,275.27275 4.8041866,275.22631 4.7653006,275.21691 4.7270056,275.2085 4.6876406,275.19799 4.6483666,275.18748 4.6108156,275.17541 4.5725546,275.1641 Z"
       style="vector-effect:none;fill:#ffffff;fill-opacity:1;fill-rule:evenodd;stroke:none;stroke-width:0.149787;stroke-linecap:round;stroke-linejoin:round;stroke-miterlimit:4;stroke-dasharray:none;stroke-dashoffset:0;stroke-opacity:1;marker:none" />
    <path
       style="stroke-width:0.00740693;fill:#ffffff"
       d="M 0.83776879,271.87528 C 0.666764,271.87528 0.52908866,272.01296 0.52908866,272.18396 V 276.50553 C 0.52908866,276.67655 0.666764,276.81422 0.83776879,276.81422 H 2.6898759 V 277.30425 H 1.8873355 C 1.8189267,277.30425 1.7638617,277.35933 1.7638617,277.42773 V 277.55121 C 1.7638617,277.61961 1.8189267,277.67468 1.8873355,277.67468 H 6.5793312 C 6.6477315,277.67468 6.702805,277.61961 6.702805,277.55121 V 277.42773 C 6.702805,277.35933 6.6477315,277.30425 6.5793312,277.30425 H 5.7767909 V 276.81422 H 7.6288891 C 7.7999027,276.81422 7.9375781,276.67655 7.9375781,276.50553 V 272.18396 C 7.9375781,272.01296 7.7999027,271.87528 7.6288891,271.87528 H 0.83784754 Z M 1.1464577,272.49264 H 7.3201303 V 276.19685 H 1.1464577 Z"
       fill="#5a5b5b"
       id="rect5467" />
  </g>
</svg>
